<?xml version="1.0" standalone="no"?>
<!DOCTYPE svg PUBLIC "-//W3C//DTD SVG 20010904//EN"
 "http://www.w3.org/TR/2001/REC-SVG-20010904/DTD/svg10.dtd">
<svg version="1.0" xmlns="http://www.w3.org/2000/svg"
 width="365.000000pt" height="365.000000pt" viewBox="0 0 365.000000 365.000000"
 preserveAspectRatio="xMidYMid meet">
<metadata>
Created by potrace 1.14, written by Peter Selinger 2001-2017
</metadata>
<g transform="translate(0.000000,365.000000) scale(0.100000,-0.100000)"
fill="#000000" stroke="none">
<path d="M1820 3639 c-117 -10 -223 -30 -213 -40 5 -5 52 -3 114 7 119 18 331
24 451 12 157 -15 435 -81 533 -127 11 -6 56 -26 99 -45 106 -48 231 -124 344
-209 102 -77 262 -226 262 -245 0 -7 4 -12 10 -12 12 0 121 -144 176 -233 32
-52 44 -65 44 -48 0 28 -87 163 -165 257 -317 380 -767 621 -1267 680 -80 9
-299 11 -388 3z"/>
<path d="M672 3329 c-76 -33 -105 -77 -105 -159 1 -91 42 -167 129 -240 24
-21 34 -42 49 -102 l18 -77 -46 -73 c-25 -41 -63 -107 -85 -148 -73 -141 -64
-135 -77 -55 -7 39 -9 72 -6 75 17 14 73 93 92 129 27 52 21 105 -21 188 -38
73 -81 122 -144 162 -56 35 -84 39 -93 14 -3 -10 -18 -34 -32 -53 -24 -32 -26
-43 -26 -140 0 -162 41 -244 145 -289 48 -21 48 -21 59 -84 13 -76 14 -127 3
-127 -9 0 -60 66 -96 125 -11 17 -21 25 -23 18 -4 -10 -8 -9 -20 2 -8 8 -21
15 -29 15 -22 0 -29 -30 -10 -48 14 -14 20 -15 37 -4 12 8 22 12 23 10 1 -2
14 -24 29 -50 15 -26 33 -53 40 -60 45 -46 45 -52 14 -145 -16 -49 -35 -113
-43 -143 -8 -30 -19 -72 -25 -94 -13 -47 -20 -40 -44 41 -18 61 -18 63 4 112
46 109 20 256 -64 349 -84 93 -149 102 -182 24 -26 -58 -26 -60 -26 -187 -1
-109 2 -126 26 -184 15 -36 37 -75 49 -88 25 -27 69 -30 112 -8 38 20 44 13
76 -88 26 -82 27 -92 6 -199 -6 -36 -21 -240 -17 -252 5 -21 -28 17 -39 43
-20 48 -210 230 -210 201 0 -5 14 -22 31 -37 64 -56 139 -143 139 -161 0 -6 4
-12 9 -14 4 -2 20 -21 34 -44 22 -36 26 -55 32 -165 3 -68 10 -128 16 -133 11
-13 12 -6 10 124 -2 95 0 109 19 133 19 24 79 64 84 55 1 -2 8 -21 15 -43 23
-69 77 -143 118 -160 21 -9 47 -14 58 -12 15 3 11 6 -14 12 -33 8 -123 86
-119 102 1 5 -6 25 -15 47 -9 21 -17 44 -17 52 0 28 44 38 160 38 103 0 122
-3 180 -28 36 -15 72 -29 80 -30 21 -4 40 19 40 48 0 22 -26 92 -40 106 -3 3
-14 21 -25 40 -45 82 -117 132 -191 134 l-52 1 -77 -78 c-76 -77 -105 -124
-105 -170 0 -18 -8 -28 -30 -37 -16 -7 -35 -18 -41 -26 -24 -29 -30 -13 -24
64 6 83 24 225 28 227 1 0 13 6 27 12 46 21 93 33 126 33 33 0 47 14 23 22
-14 5 -116 -7 -147 -16 -36 -12 -28 28 15 75 65 72 153 122 153 86 0 -7 11
-29 25 -48 13 -20 22 -39 20 -43 -3 -3 -2 -4 1 -1 4 2 18 -5 32 -15 50 -40
189 -14 271 51 56 44 90 143 69 199 -34 92 -192 145 -321 109 -78 -21 -137
-108 -121 -175 4 -17 -3 -26 -33 -45 -21 -12 -53 -36 -72 -51 -18 -16 -35 -28
-37 -26 -11 12 64 253 127 403 27 65 33 73 60 77 27 4 32 1 45 -30 7 -19 14
-37 14 -41 0 -3 15 -16 33 -28 43 -29 107 -30 181 -2 66 24 152 98 161 138 7
34 -12 85 -46 121 -13 13 -23 27 -22 31 1 3 -3 6 -10 6 -7 1 -26 7 -44 14 -26
11 -44 11 -94 0 -34 -7 -71 -18 -83 -24 -36 -20 -76 -69 -88 -108 -10 -35 -41
-58 -53 -40 -5 10 90 180 114 202 22 20 101 36 101 20 0 -16 19 -13 37 4 14
14 12 18 -12 41 -26 24 -51 24 -41 -1 4 -12 -43 -29 -53 -19 -2 2 7 21 21 42
20 30 32 38 59 40 31 2 36 -2 54 -40 53 -111 148 -159 221 -112 65 43 71 127
13 189 l-38 39 28 17 c37 22 58 86 55 166 -3 75 -19 111 -62 136 -42 25 -122
25 -165 0 -45 -27 -85 -90 -93 -149 -8 -56 -8 -56 1 -106 7 -32 3 -43 -26 -80
-41 -53 -59 -72 -63 -67 -7 9 -26 73 -26 89 0 10 10 20 23 24 30 8 68 66 74
115 7 51 -14 221 -32 266 -15 33 -27 42 -80 55 -21 5 -44 1 -73 -11z m106 -30
c40 -25 62 -99 62 -212 0 -80 -7 -105 -42 -144 -27 -29 -45 -19 -54 30 -6 38
-7 40 -15 19 -5 -13 -7 -28 -3 -33 15 -25 -23 -4 -53 29 -53 57 -76 109 -77
174 0 69 20 101 83 134 44 24 65 24 99 3z m350 -119 c27 -25 27 -30 3 -25 -10
2 -42 -7 -70 -21 -46 -21 -55 -30 -77 -81 -32 -72 -63 -115 -76 -107 -13 8 -3
103 15 146 38 87 153 136 205 88z m-734 -261 c8 -42 43 -142 73 -209 55 -122
54 -154 -5 -119 -80 48 -114 123 -115 248 0 83 18 148 33 120 5 -8 11 -26 14
-40z m536 -34 c0 -18 -35 -55 -52 -55 -19 0 -18 1 4 29 20 26 48 41 48 26z
m172 -39 c39 -19 78 -72 78 -107 0 -24 -23 -67 -44 -81 -18 -12 -61 -9 -100 7
-24 10 -47 32 -66 62 -41 64 -39 73 15 73 25 0 45 4 45 9 0 8 -66 26 -82 23
-5 -1 -8 2 -8 8 0 31 100 35 162 6z m-482 -173 c-12 -16 -30 -43 -42 -61 -22
-36 -41 -38 -46 -5 -2 15 4 22 22 27 13 3 37 19 53 36 35 37 41 39 13 3z m327
-44 c51 -19 113 -99 113 -145 0 -25 -76 -93 -132 -119 -61 -29 -137 -33 -172
-10 -24 16 -53 71 -43 81 3 3 42 5 86 5 45 0 81 3 81 8 0 13 -39 21 -107 21
-69 0 -72 3 -47 57 21 42 70 81 126 98 54 17 60 17 95 4z m-644 -165 c50 -66
77 -141 77 -214 0 -63 -14 -115 -29 -106 -5 3 -12 25 -15 48 -4 24 -11 50 -16
58 -15 23 -12 -23 4 -95 16 -65 14 -67 -44 -99 -50 -27 -75 -7 -119 94 -47
108 -39 317 15 375 l24 27 33 -19 c17 -11 49 -41 70 -69z m587 -240 c67 -20
130 -78 130 -120 0 -123 -194 -250 -314 -204 -21 8 -86 99 -86 121 0 11 65 38
162 68 51 16 94 34 96 40 4 13 -7 12 -113 -14 -38 -10 -79 -23 -90 -30 -11 -6
-31 -14 -44 -18 -23 -6 -23 -4 -18 39 12 106 138 159 277 118z m-332 -600 c-4
-3 -3 -18 2 -34 7 -24 5 -29 -13 -34 -12 -3 -25 -2 -29 2 -9 9 21 72 35 72 6
0 8 -3 5 -6z"/>
<path d="M361 2571 c-18 -12 -6 -44 22 -57 22 -10 23 -9 18 25 -6 37 -18 46
-40 32z"/>
<path d="M415 2540 c-7 -12 2 -30 16 -30 12 0 12 27 0 35 -5 3 -12 1 -16 -5z"/>
<path d="M2976 2483 c-14 -8 -26 -17 -26 -21 0 -4 -11 -20 -25 -35 -14 -15
-23 -27 -21 -27 3 0 -7 -21 -22 -47 -16 -27 -37 -70 -47 -98 -10 -27 -22 -54
-27 -60 -4 -5 -8 -16 -8 -26 0 -21 -64 -105 -92 -120 -25 -13 -41 4 -34 36 12
54 16 68 25 79 13 16 9 68 -7 85 -35 36 -122 -1 -193 -81 -87 -98 -122 -129
-131 -120 -14 14 7 72 48 132 40 58 37 80 -12 80 -36 0 -39 5 -25 43 12 31 4
40 -22 25 -35 -18 -56 -51 -57 -86 0 -30 -40 -103 -75 -137 -32 -32 -85 -65
-112 -70 -26 -4 -34 -1 -43 15 -16 29 4 60 38 60 16 0 47 12 70 27 70 46 81
114 19 121 -39 5 -80 -22 -134 -85 -67 -80 -125 -134 -137 -130 -16 6 -7 75
15 121 12 25 16 43 10 49 -12 12 -60 -7 -90 -34 -12 -11 -21 -15 -21 -10 0 5
4 12 8 15 5 3 9 20 8 38 -2 53 -29 48 -93 -16 -31 -31 -58 -54 -61 -52 -2 3 2
21 9 40 11 31 11 38 -2 51 -14 14 -18 10 -45 -42 -50 -99 -161 -188 -209 -169
-20 7 -19 55 3 87 42 63 102 116 115 102 11 -11 -27 -54 -69 -79 -24 -14 -42
-30 -39 -34 15 -24 131 46 141 85 22 90 -69 87 -157 -4 -96 -101 -64 -207 56
-184 33 7 44 14 91 61 34 33 35 31 19 -30 -12 -45 28 -37 62 13 89 129 140
178 107 102 -43 -98 -21 -124 41 -49 44 54 69 67 55 30 -11 -29 -13 -84 -4
-108 11 -28 68 -20 101 14 34 36 39 37 47 6 3 -14 16 -28 29 -32 28 -10 89
-11 102 -2 47 33 102 91 140 149 46 70 51 74 79 63 13 -5 13 -10 4 -27 -6 -12
-14 -24 -18 -27 -20 -16 -50 -82 -50 -113 0 -59 56 -70 103 -21 27 29 32 29
57 4 31 -31 65 -25 114 20 l43 40 1 -31 c1 -38 18 -59 47 -59 22 0 69 31 91
59 9 11 12 8 17 -17 5 -23 13 -33 33 -38 28 -7 94 18 94 36 0 17 25 11 44 -11
24 -29 70 -19 116 26 44 43 54 44 45 3 -11 -50 -7 -110 8 -126 10 -10 25 -12
46 -7 38 8 41 25 5 25 -27 0 -27 0 -21 63 8 96 32 159 73 198 136 127 175 178
176 231 1 35 -13 46 -54 42 -40 -5 -88 -60 -135 -156 -36 -74 -39 -78 -71 -78
-65 0 -113 -35 -233 -170 -45 -50 -76 -59 -85 -25 -9 36 2 57 56 111 59 58
154 186 174 236 14 32 12 77 -3 79 -39 5 -53 4 -75 -8z m35 -86 c-38 -71 -100
-157 -113 -157 -5 0 -7 -4 -4 -9 7 -11 -22 -36 -31 -27 -4 3 -1 12 5 18 7 7
12 20 12 30 0 10 4 18 8 18 5 0 9 6 9 13 0 23 73 135 105 162 43 36 46 20 9
-48z m350 16 c-17 -33 -131 -163 -131 -150 0 33 77 155 117 187 35 27 40 13
14 -37z m-1165 -212 c-16 -29 -48 -55 -92 -71 -26 -10 -26 -10 6 27 33 38 78
73 93 73 4 0 1 -13 -7 -29z m489 18 c4 -5 -1 -9 -9 -9 -9 0 -16 -4 -16 -10 0
-5 -30 -41 -68 -80 -71 -74 -109 -91 -98 -44 7 27 8 28 56 85 43 52 119 84
135 58z m475 -1 c0 -16 -111 -135 -152 -160 -23 -15 -27 -15 -32 -2 -12 30 51
117 110 153 31 19 74 25 74 9z"/>
<path d="M0 1921 c0 -6 6 -11 13 -12 6 0 26 -3 42 -5 17 -2 49 -6 72 -9 92
-13 149 -87 173 -228 15 -82 25 -88 16 -9 -15 142 -69 228 -158 250 -76 19
-158 26 -158 13z"/>
<path d="M580 1900 c0 -20 32 -44 44 -33 3 3 6 -3 6 -13 0 -11 -4 -24 -10 -30
-6 -6 -6 -15 1 -24 8 -13 11 -13 22 1 6 8 20 18 29 22 11 4 17 15 16 31 -1 13
-6 22 -10 20 -4 -3 -8 -1 -8 5 0 5 -9 8 -20 6 -14 -3 -20 2 -20 16 0 14 -7 19
-25 19 -18 0 -25 -5 -25 -20z"/>
<path d="M1338 1882 l-118 -3 0 -97 c0 -93 -1 -98 -22 -99 -24 -2 -38 -19 -38
-45 0 -13 8 -18 29 -18 l29 0 2 -182 c0 -100 2 -183 3 -184 4 -4 66 -6 170 -5
l108 1 -3 28 -3 27 -95 0 c-52 1 -100 4 -107 8 -8 5 -12 52 -12 157 l0 150 70
0 69 0 0 33 0 32 -67 0 -68 0 -1 68 -2 67 108 0 c97 0 108 2 113 19 11 42 -8
47 -165 43z"/>
<path d="M1945 1871 c-71 -44 -85 -85 -85 -257 0 -111 -2 -134 -15 -134 -8 0
-21 -13 -29 -28 -14 -27 -13 -28 12 -30 14 -1 27 -3 28 -5 2 -2 4 -40 5 -85
l1 -82 29 0 c32 0 32 -2 29 108 l-1 62 99 0 c71 0 101 -4 104 -12 2 -7 4 -46
3 -85 l0 -73 27 0 28 0 0 260 c0 243 -1 264 -20 301 -12 22 -35 49 -53 59 -42
26 -121 26 -162 1z m157 -82 c17 -22 20 -46 22 -162 2 -112 -1 -137 -12 -142
-8 -3 -55 -5 -103 -4 l-88 1 0 137 c0 118 3 140 20 168 37 59 118 60 161 2z"/>
<path d="M2573 1863 c-61 -39 -84 -105 -64 -181 16 -59 56 -96 126 -117 86
-25 113 -43 131 -92 14 -36 15 -50 5 -83 -11 -37 -59 -89 -84 -91 -7 0 -20 -2
-29 -4 -31 -6 -95 34 -112 70 -11 22 -22 32 -34 30 -9 -2 -20 -4 -24 -4 -9 -1
-2 -34 13 -63 50 -96 189 -117 274 -41 73 64 70 221 -4 281 -19 16 -78 43
-104 48 -41 8 -57 16 -82 45 -54 65 -9 167 73 169 25 0 82 -29 82 -42 0 -13
27 -9 39 6 29 35 -56 96 -132 96 -19 0 -51 -12 -74 -27z"/>
<path d="M3190 1780 c0 -98 0 -100 -23 -100 -16 0 -28 -9 -35 -25 -16 -35 -16
-35 23 -35 l35 0 0 -185 0 -185 140 0 140 0 0 25 c0 14 -3 26 -7 26 -5 1 -53
3 -108 4 -55 1 -102 3 -105 4 -3 0 -5 71 -5 156 l0 155 25 1 c119 3 115 2 118
32 l3 27 -70 0 c-39 0 -72 3 -72 8 -1 4 -2 35 -3 70 l-2 62 30 1 c17 0 65 0
106 0 76 0 90 6 90 42 0 15 -13 17 -140 17 l-140 0 0 -100z"/>
<path d="M0 1563 c-1 -73 166 -123 244 -73 37 24 27 25 -32 5 -33 -12 -53 -13
-79 -6 -35 10 -97 52 -120 81 -11 13 -12 12 -13 -7z"/>
<path d="M1200 1035 c0 -32 4 -55 11 -55 5 0 9 8 8 18 -4 40 3 45 20 12 l19
-35 22 38 c12 20 23 37 24 37 1 0 2 -16 1 -35 -1 -19 2 -35 6 -35 9 0 11 14
11 65 0 58 -10 61 -38 10 -10 -19 -21 -35 -24 -35 -4 0 -14 16 -23 35 -24 50
-37 43 -37 -20z"/>
<path d="M1398 1035 c-19 -39 -23 -55 -14 -55 8 0 16 7 20 15 3 8 17 15 31 15
14 0 28 -7 31 -15 4 -8 12 -15 19 -15 15 0 -34 102 -51 107 -5 1 -21 -22 -36
-52z m52 -7 c0 -5 -7 -8 -15 -8 -17 0 -18 2 -9 25 5 13 8 14 15 3 5 -7 9 -16
9 -20z"/>
<path d="M1556 1075 c-24 -25 -16 -49 17 -51 49 -2 58 -5 54 -16 -5 -15 -35
-18 -61 -5 -11 5 -22 5 -28 -1 -7 -7 1 -13 24 -17 58 -11 83 -4 83 25 0 21 -5
26 -38 30 -45 6 -45 25 0 26 32 0 59 13 32 15 -8 0 -26 3 -41 5 -16 3 -32 -2
-42 -11z"/>
<path d="M1718 1076 c-10 -7 -15 -20 -12 -32 4 -15 13 -19 40 -19 38 2 53 -10
35 -28 -8 -8 -19 -8 -43 1 -34 13 -52 7 -28 -9 8 -5 33 -8 55 -7 35 3 40 6 40
28 0 20 -5 26 -30 28 -53 5 -63 11 -41 27 12 10 25 11 42 5 13 -5 26 -5 29 -1
12 20 -62 26 -87 7z"/>
<path d="M1877 1035 c-21 -43 -24 -55 -12 -55 8 0 15 7 15 15 0 22 56 20 69
-2 5 -10 12 -15 16 -11 7 7 -43 108 -54 108 -4 0 -19 -25 -34 -55z m51 -3 c2
-7 -5 -12 -17 -12 -14 0 -19 5 -14 15 6 17 25 15 31 -3z"/>
<path d="M2031 1071 c-41 -41 -17 -90 44 -91 68 0 84 56 18 59 -23 2 -14 -17
10 -21 l22 -3 -23 -13 c-28 -16 -59 -7 -67 19 -11 33 13 52 56 45 21 -3 41 -2
44 4 3 5 0 10 -8 10 -8 0 -28 3 -45 6 -22 5 -35 1 -51 -15z"/>
<path d="M2192 1033 l-1 -53 49 0 c27 0 51 4 54 9 4 5 -14 7 -39 5 -40 -4 -45
-2 -45 16 0 17 5 19 30 15 17 -3 30 -1 30 5 0 5 -13 10 -30 10 -20 0 -30 5
-30 15 0 11 11 15 40 15 22 0 40 4 40 9 0 4 -22 8 -48 8 l-48 -1 -2 -53z"/>
<path d="M2410 1079 c0 -5 11 -9 24 -9 23 0 25 -3 23 -45 -1 -32 2 -45 11 -45
8 0 13 10 12 28 -4 55 -1 62 27 62 14 0 23 3 19 8 -11 10 -116 12 -116 1z"/>
<path d="M2570 1035 c0 -30 5 -55 10 -55 6 0 10 11 10 26 0 22 3 25 33 21 24
-2 33 -9 35 -25 2 -12 8 -22 13 -22 12 0 12 97 -1 105 -6 4 -10 -5 -10 -19 0
-23 -4 -26 -35 -26 -31 0 -35 3 -35 25 0 14 -4 25 -10 25 -5 0 -10 -25 -10
-55z"/>
<path d="M2743 1033 l-1 -53 49 0 c27 0 49 4 49 8 0 5 -18 7 -41 6 -33 -2 -39
1 -37 15 2 9 13 16 25 16 12 0 25 3 29 8 4 4 -7 7 -24 7 -22 0 -32 5 -32 15 0
11 11 15 40 15 22 0 40 4 40 9 0 5 -22 9 -48 8 l-48 0 -1 -54z"/>
<path d="M2900 1035 c0 -30 5 -55 10 -55 6 0 10 9 10 19 0 32 18 34 45 7 30
-30 57 -35 30 -6 -16 18 -16 20 -1 35 31 31 18 45 -49 50 l-45 4 0 -54z m80
20 c0 -16 -55 -22 -64 -6 -8 13 5 21 36 21 18 0 28 -5 28 -15z"/>
<path d="M3078 1038 c-27 -50 -29 -80 -4 -45 7 9 23 17 36 17 13 0 29 -8 36
-17 7 -10 15 -15 19 -11 7 7 -42 108 -53 108 -4 0 -19 -23 -34 -52z m52 -10
c0 -5 -9 -8 -20 -8 -18 0 -19 3 -9 21 9 17 13 19 20 8 5 -8 9 -17 9 -21z"/>
<path d="M3220 1033 c0 -29 5 -53 10 -53 6 0 10 9 10 20 0 11 5 21 10 21 6 1
15 3 20 4 6 1 19 3 29 4 22 1 33 22 21 41 -4 6 -28 13 -54 15 l-46 2 0 -54z
m80 22 c0 -10 -10 -15 -30 -15 -20 0 -30 5 -30 15 0 10 10 15 30 15 20 0 30
-5 30 -15z"/>
<path d="M3384 1057 c15 -19 26 -44 26 -55 0 -12 5 -22 10 -22 6 0 10 12 10
27 0 15 10 37 22 50 12 13 19 25 16 29 -3 3 -15 -5 -27 -17 l-21 -23 -23 22
c-35 33 -41 27 -13 -11z"/>
<path d="M3601 911 c-81 -143 -252 -339 -401 -461 -163 -134 -394 -259 -605
-329 -210 -69 -410 -99 -640 -95 -169 3 -185 5 -415 50 -82 16 -292 91 -390
140 -165 81 -336 201 -471 331 -47 46 -89 83 -93 83 -45 0 167 -195 331 -303
229 -152 466 -248 718 -292 22 -4 49 -9 60 -11 71 -13 118 -16 270 -19 94 -2
199 1 235 6 36 5 79 11 95 13 153 20 375 90 540 171 206 100 346 198 499 348
147 145 306 354 306 404 0 13 -1 23 -2 23 -2 0 -18 -27 -37 -59z"/>
</g>
</svg>
